HIERARCHY
ROOT Hips
{
	OFFSET 0.00000 0.00000 0.00000
	CHANNELS 6 Xposition Yposition Zposition Zrotation Yrotation Xrotation 
	JOINT LHipJoint
	{
		OFFSET 0 0 0
		CHANNELS 3 Zrotation Yrotation Xrotation
		JOINT LeftUpLeg
		{
			OFFSET 1.58895 -1.83665 0.71753
			CHANNELS 3 Zrotation Yrotation Xrotation
			JOINT LeftLeg
			{
				OFFSET 2.50528 -6.88321 0.00000
				CHANNELS 3 Zrotation Yrotation Xrotation
				JOINT LeftFoot
				{
					OFFSET 2.63244 -7.23257 0.00000
					CHANNELS 3 Zrotation Yrotation Xrotation
					JOINT LeftToeBase
					{
						OFFSET 0.23691 -0.65090 1.72750
						CHANNELS 3 Zrotation Yrotation Xrotation
						End Site
						{
							OFFSET 0.00000 -0.00000 0.92561
						}
					}
				}
			}
		}
	}
	JOINT RHipJoint
	{
		OFFSET 0 0 0
		CHANNELS 3 Zrotation Yrotation Xrotation
		JOINT RightUpLeg
		{
			OFFSET -1.51435 -1.83665 0.71753
			CHANNELS 3 Zrotation Yrotation Xrotation
			JOINT RightLeg
			{
				OFFSET -2.54551 -6.99375 0.00000
				CHANNELS 3 Zrotation Yrotation Xrotation
				JOINT RightFoot
				{
					OFFSET -2.66027 -7.30903 0.00000
					CHANNELS 3 Zrotation Yrotation Xrotation
					JOINT RightToeBase
					{
						OFFSET -0.22981 -0.63138 2.03959
						CHANNELS 3 Zrotation Yrotation Xrotation
						End Site
						{
							OFFSET -0.00000 -0.00000 1.07060
						}
					}
				}
			}
		}
	}
	JOINT LowerBack
	{
		OFFSET 0 0 0
		CHANNELS 3 Zrotation Yrotation Xrotation
		JOINT Spine
		{
			OFFSET -0.02651 1.86275 -0.11152
			CHANNELS 3 Zrotation Yrotation Xrotation
			JOINT Spine1
			{
				OFFSET 0.01019 1.86224 0.04087
				CHANNELS 3 Zrotation Yrotation Xrotation
				JOINT Neck
				{
					OFFSET 0 0 0
					CHANNELS 3 Zrotation Yrotation Xrotation
					JOINT Neck1
					{
						OFFSET -0.01926 1.80512 0.08867
						CHANNELS 3 Zrotation Yrotation Xrotation
						JOINT Head
						{
							OFFSET 0.05516 1.76451 -0.38475
							CHANNELS 3 Zrotation Yrotation Xrotation
							End Site
							{
								OFFSET 0.01592 1.82587 -0.14001
							}
						}
					}
				}
				JOINT LeftShoulder
				{
					OFFSET 0 0 0
					CHANNELS 3 Zrotation Yrotation Xrotation
					JOINT LeftArm
					{
						OFFSET 3.47116 1.51376 0.14491
						CHANNELS 3 Zrotation Yrotation Xrotation
						JOINT LeftForeArm
						{
							OFFSET 4.78095 -0.00000 0.00000
							CHANNELS 3 Zrotation Yrotation Xrotation
							JOINT LeftHand
							{
								OFFSET 3.58615 -0.00000 -0.00000
								CHANNELS 3 Zrotation Yrotation Xrotation
								JOINT LeftFingerBase
								{
									OFFSET 0 0 0
									CHANNELS 3 Zrotation Yrotation Xrotation
									JOINT LeftHandIndex1
									{
										OFFSET 0.65981 -0.00000 0.00000
										CHANNELS 3 Zrotation Yrotation Xrotation
										End Site
										{
											OFFSET 0.53196 -0.00000 0.00000
										}
									}
								}
								JOINT LThumb
								{
									OFFSET 0 0 0
									CHANNELS 3 Zrotation Yrotation Xrotation
									End Site
									{
										OFFSET 0.54008 -0.00000 0.54008
									}
								}
							}
						}
					}
				}
				JOINT RightShoulder
				{
					OFFSET 0 0 0
					CHANNELS 3 Zrotation Yrotation Xrotation
					JOINT RightArm
					{
						OFFSET -3.31725 1.61216 0.35156
						CHANNELS 3 Zrotation Yrotation Xrotation
						JOINT RightForeArm
						{
							OFFSET -4.48913 -0.00000 0.00000
							CHANNELS 3 Zrotation Yrotation Xrotation
							JOINT RightHand
							{
								OFFSET -3.70510 -0.00000 0.00000
								CHANNELS 3 Zrotation Yrotation Xrotation
								JOINT RightFingerBase
								{
									OFFSET 0 0 0
									CHANNELS 3 Zrotation Yrotation Xrotation
									JOINT RightHandIndex1
									{
										OFFSET -0.44914 -0.00000 0.00000
										CHANNELS 3 Zrotation Yrotation Xrotation
										End Site
										{
											OFFSET -0.36211 -0.00000 0.00000
										}
									}
								}
								JOINT RThumb
								{
									OFFSET 0 0 0
									CHANNELS 3 Zrotation Yrotation Xrotation
									End Site
									{
										OFFSET -0.36763 -0.00000 0.36763
									}
								}
							}
						}
					}
				}
			}
		}
	}
}
MOTION
Frames: 14
Frame Time: .0083333
-0.6847 18.6250 6.6920 -3.7938 -2.8974 3.4386 0.0000 0.0000 0.0000 -12.3478 -11.5160 2.8031 1.3022 7.2292 20.3962 2.7453 10.9838 -36.6390 7.5253 -15.7588 -50.8344 0.0000 0.0000 0.0000 0.0000 0.0000 0.0000 0.0000 0.0000 0.0000 -0.0000 -0.0000 0.0000 -0.0000 -0.0000 0.0000 -1.1056 2.3411 0.7524 -0.6105 3.0494 -7.1034 -0.2544 1.5535 -7.8695 -2.6606 -2.0837 -13.8039 2.5112 -3.2848 37.8060 0.9907 -1.4175 15.7753 -0.0000 -0.0000 0.0000 -44.3216 19.0083 -11.0372 66.3323 -57.7738 -39.6563 -0.0000 0.0000 -38.0060 0.9910 -9.5672 -0.1647 -7.1250 0.0000 -0.0000 -18.3664 20.5917 11.3205 -0.0000 -0.0000 0.0000 50.7582 11.6679 74.6384 -149.1209 41.6351 -108.0105 0.0000 -0.0000 -50.1599 24.9338 -19.9279 -9.0040 7.1250 -0.0000 -0.0000 47.0370 -44.4379 0.8584
-0.6695 18.6285 6.6781 -3.7957 -2.6471 3.4209 0.0000 0.0000 0.0000 -12.3147 -11.5083 2.6273 1.3116 7.2544 20.4712 2.7078 10.8761 -36.3772 7.5527 -15.7802 -50.9352 0.0000 0.0000 0.0000 0.0000 0.0000 0.0000 0.0000 0.0000 0.0000 -0.0000 -0.0000 0.0000 -0.0000 -0.0000 0.0000 -0.8577 2.2809 1.0979 -0.5361 2.9830 -7.1327 -0.3261 1.5065 -8.0933 -2.8026 -2.1773 -13.3778 2.5183 -3.4035 38.0141 1.0044 -1.4907 15.7862 -0.0000 -0.0000 0.0000 -44.8646 19.6968 -9.5882 70.1402 -58.4560 -42.8901 -0.0000 0.0000 -37.4696 -1.1824 -9.6714 0.1987 -7.1250 0.0000 -0.0000 -19.8340 20.5106 12.3795 -0.0000 -0.0000 0.0000 51.0704 9.2376 74.3265 -149.3030 41.4834 -108.1314 0.0000 -0.0000 -49.4641 26.3648 -19.8707 -9.5626 7.1250 -0.0000 -0.0000 47.9605 -44.1789 1.2994
-0.6540 18.6306 6.6638 -3.7180 -2.3573 3.3226 0.0000 0.0000 0.0000 -12.3714 -11.4503 2.5125 1.3199 7.2764 20.5370 2.6583 10.7711 -36.0524 7.5969 -15.8146 -51.0974 0.0000 0.0000 0.0000 0.0000 0.0000 0.0000 0.0000 0.0000 0.0000 -0.0000 -0.0000 0.0000 -0.0000 -0.0000 0.0000 -0.7672 2.1428 1.3070 -0.4254 2.8085 -7.0214 -0.2519 1.4183 -8.0947 -2.8118 -2.2106 -12.9118 2.3845 -3.4148 38.0699 0.9513 -1.5202 15.6989 0.0000 -0.0000 0.0000 -46.3920 19.7150 -9.7570 74.1192 -59.0253 -46.2918 -0.0000 0.0000 -36.7060 -3.7487 -9.9498 0.6486 -7.1250 0.0000 -0.0000 -21.5183 20.2507 13.7294 0.0000 -0.0000 0.0000 52.2752 6.1404 73.9400 -149.4391 41.3693 -108.2214 0.0000 -0.0000 -48.5259 28.4981 -19.7027 -10.3724 7.1250 -0.0000 -0.0000 49.2210 -43.7208 2.1294
-0.6404 18.6305 6.6494 -3.6373 -2.1184 3.2017 0.0000 0.0000 0.0000 -12.4220 -11.3124 2.4033 1.3275 7.2963 20.5963 2.6095 10.7074 -35.7552 7.6538 -15.8586 -51.3058 0.0000 0.0000 0.0000 0.0000 0.0000 0.0000 0.0000 0.0000 0.0000 -0.0000 -0.0000 0.0000 -0.0000 -0.0000 0.0000 -0.7277 1.9991 1.4471 -0.2981 2.6257 -6.8733 -0.1267 1.3302 -8.0188 -2.6896 -2.1942 -12.4217 2.1425 -3.3482 38.1404 0.8421 -1.5127 15.6044 0.0000 0.0000 0.0000 -48.7447 19.3544 -10.9642 78.7503 -59.5164 -50.2733 -0.0000 0.0000 -36.0431 -5.9866 -10.3282 1.0771 -7.1250 0.0000 -0.0000 -22.9369 19.8816 15.0077 0.0000 0.0000 0.0000 53.9975 4.3041 73.9095 -149.4728 41.3410 -108.2437 0.0000 -0.0000 -48.0815 29.0395 -20.0792 -10.7919 7.1250 -0.0000 -0.0000 49.8265 -43.9263 1.8226
-0.6289 18.6293 6.6348 -3.6050 -1.9617 3.1382 0.0000 0.0000 0.0000 -12.4157 -11.1664 2.2811 1.3324 7.3093 20.6348 2.5766 10.5835 -35.5016 7.6869 -15.8841 -51.4271 0.0000 0.0000 0.0000 0.0000 0.0000 0.0000 0.0000 0.0000 0.0000 -0.0000 -0.0000 0.0000 -0.0000 -0.0000 0.0000 -0.6571 1.8813 1.4520 -0.1575 2.4811 -6.7123 -0.0028 1.2596 -7.8491 -2.5833 -2.1611 -12.0587 1.9709 -3.2795 38.3756 0.7662 -1.4947 15.6266 0.0000 -0.0000 0.0000 -51.5688 18.7389 -12.6399 83.9513 -59.8613 -54.7641 -0.0000 0.0000 -35.9526 -7.5497 -10.6118 1.3981 -7.1250 0.0000 -0.0000 -23.9050 19.5965 15.9397 0.0000 -0.0000 0.0000 56.0658 2.6108 73.8996 -149.4258 41.3805 -108.2126 0.0000 -0.0000 -47.3909 29.8766 -20.3059 -11.2749 7.1250 -0.0000 -0.0000 50.5063 -43.9671 1.7963
-0.6181 18.6266 6.6207 -3.5770 -1.8825 3.1307 0.0000 0.0000 0.0000 -12.3799 -10.8983 2.0941 1.3343 7.3144 20.6501 2.5413 10.3221 -35.1476 7.6992 -15.8935 -51.4719 0.0000 0.0000 0.0000 0.0000 0.0000 0.0000 0.0000 0.0000 0.0000 -0.0000 -0.0000 0.0000 -0.0000 -0.0000 0.0000 -0.5655 1.7385 1.3624 -0.0108 2.3042 -6.5467 0.1212 1.1720 -7.6183 -2.4093 -2.0793 -11.7442 1.7214 -3.1242 38.5979 0.6579 -1.4408 15.6483 -0.0000 -0.0000 0.0000 -54.5695 18.0247 -14.5747 89.4054 -59.9987 -59.4851 -0.0000 0.0000 -36.6286 -8.8165 -10.5165 1.6216 -7.1250 0.0000 -0.0000 -24.7317 19.6575 16.5745 -0.0000 -0.0000 0.0000 58.4653 1.2560 74.1002 -149.2478 41.5295 -108.0948 0.0000 -0.0000 -46.2138 31.0453 -20.3127 -11.8026 7.1250 -0.0000 -0.0000 51.2131 -43.7828 2.1779
-0.6083 18.6215 6.6075 -3.4560 -1.9397 3.1606 0.0000 0.0000 0.0000 -12.4466 -10.5455 1.8666 1.3353 7.3170 20.6581 2.5250 10.0288 -34.8756 7.6958 -15.8909 -51.4593 0.0000 0.0000 0.0000 0.0000 0.0000 0.0000 0.0000 0.0000 0.0000 -0.0000 -0.0000 0.0000 -0.0000 -0.0000 0.0000 -0.5616 1.6247 1.2043 0.1053 2.1591 -6.3531 0.2608 1.1040 -7.3204 -2.1477 -1.9753 -11.5002 1.3520 -2.9083 38.7192 0.4907 -1.3644 15.6304 0.0000 0.0000 0.0000 -57.4938 17.0347 -16.5301 94.5922 -59.9202 -63.9759 -0.0000 0.0000 -37.6897 -10.0588 -9.8736 1.7422 -7.1250 0.0000 -0.0000 -25.6339 20.2121 16.9612 0.0000 0.0000 0.0000 60.9035 0.2103 74.4187 -149.0142 41.7235 -107.9396 0.0000 -0.0000 -44.8329 32.2885 -20.4617 -12.4565 7.1250 -0.0000 -0.0000 52.0444 -43.6910 2.4190
-0.5995 18.6145 6.5961 -3.2699 -2.1523 3.1892 0.0000 0.0000 0.0000 -12.6506 -10.2832 1.7480 1.3347 7.3155 20.6535 2.5494 9.8224 -34.8804 7.6958 -15.8909 -51.4594 0.0000 0.0000 0.0000 0.0000 0.0000 0.0000 0.0000 0.0000 0.0000 -0.0000 -0.0000 0.0000 -0.0000 -0.0000 0.0000 -0.6185 1.5916 1.0059 0.1461 2.1147 -6.1501 0.3485 1.0863 -6.9903 -2.0253 -1.9320 -11.3512 1.2442 -2.8468 38.9067 0.4342 -1.3366 15.6835 0.0000 -0.0000 0.0000 -59.9598 15.7978 -18.1077 98.8961 -59.6988 -67.6964 -0.0000 0.0000 -38.7078 -11.1120 -8.9581 1.7518 -7.1250 0.0000 -0.0000 -26.4723 21.0103 17.1114 0.0000 -0.0000 0.0000 62.6470 -0.2144 74.9174 -148.7395 41.9496 -107.7564 0.0000 -0.0000 -44.1373 32.5644 -20.9636 -12.8708 7.1250 -0.0000 -0.0000 52.5847 -44.0283 1.8230
-0.5925 18.6081 6.5864 -3.1083 -2.4155 3.2096 0.0000 0.0000 0.0000 -12.8620 -10.1135 1.7165 1.3302 7.3035 20.6176 2.5636 9.8344 -34.9649 7.7350 -15.9208 -51.6024 0.0000 0.0000 0.0000 0.0000 0.0000 0.0000 0.0000 0.0000 0.0000 -0.0000 -0.0000 0.0000 -0.0000 -0.0000 0.0000 -0.6289 1.5875 0.8155 0.1206 2.1074 -5.9808 0.3373 1.0820 -6.6981 -2.0349 -1.9565 -11.1797 1.4526 -2.9805 39.1898 0.5059 -1.3679 15.7958 0.0000 0.0000 0.0000 -61.7862 14.6701 -19.1364 101.8670 -59.4611 -70.2585 -0.0000 0.0000 -39.3425 -11.9525 -8.4434 1.7804 -7.1250 0.0000 -0.0000 -27.1049 21.4434 17.3240 0.0000 0.0000 0.0000 63.0902 -0.2022 75.6263 -148.4974 42.1470 -107.5942 0.0000 -0.0000 -44.1740 31.6230 -21.3676 -12.6450 7.1250 -0.0000 -0.0000 52.3512 -44.4921 0.9380
-0.5894 18.6067 6.5748 -2.9467 -2.6461 3.2824 0.0000 0.0000 0.0000 -13.0200 -9.9081 1.5768 1.3246 7.2889 20.5741 2.5384 9.9203 -34.8814 7.7691 -15.9468 -51.7267 0.0000 0.0000 0.0000 0.0000 0.0000 0.0000 0.0000 0.0000 0.0000 -0.0000 -0.0000 0.0000 -0.0000 -0.0000 0.0000 -0.6507 1.5817 0.5775 0.0339 2.0948 -5.8276 0.2704 1.0738 -6.3944 -1.9730 -2.0035 -10.9025 1.7254 -3.1947 39.3473 0.5808 -1.4153 15.8211 0.0000 0.0000 0.0000 -62.8943 13.9304 -19.5485 103.6795 -59.2810 -71.8181 -0.0000 0.0000 -39.6884 -12.7328 -8.5424 1.9224 -7.1250 0.0000 -0.0000 -27.5738 21.3172 17.8020 0.0000 0.0000 0.0000 62.9062 0.1889 76.2783 -148.4300 42.2017 -107.5490 0.0000 -0.0000 -44.0093 30.5528 -21.7272 -12.3263 7.1250 -0.0000 -0.0000 51.9840 -44.9390 0.1104
-0.5878 18.6099 6.5620 -2.7607 -2.8762 3.3864 0.0000 0.0000 0.0000 -13.1642 -9.5995 1.3395 1.3220 7.2819 20.5532 2.5001 9.9128 -34.6680 7.7587 -15.9389 -51.6888 0.0000 0.0000 0.0000 0.0000 0.0000 0.0000 0.0000 0.0000 0.0000 -0.0000 -0.0000 0.0000 -0.0000 -0.0000 0.0000 -0.7328 1.5862 0.2638 -0.0962 2.0928 -5.6512 0.1945 1.0727 -6.0244 -1.8512 -2.0757 -10.5892 1.9164 -3.4292 39.4063 0.6067 -1.4747 15.7846 0.0000 0.0000 0.0000 -63.2840 13.7004 -19.2781 105.0417 -59.1276 -72.9883 -0.0000 0.0000 -40.0912 -13.1837 -8.8388 2.0614 -7.1250 0.0000 -0.0000 -27.7928 21.0260 18.2000 0.0000 0.0000 0.0000 62.1050 0.8897 76.8050 -148.4883 42.1544 -107.5881 0.0000 -0.0000 -43.8547 30.3233 -21.6625 -12.1837 7.1250 -0.0000 -0.0000 51.7933 -44.9275 0.1305
-0.5843 18.6143 6.5524 -2.6810 -3.1273 3.4128 0.0000 0.0000 0.0000 -13.2438 -9.3418 1.2544 1.3183 7.2722 20.5242 2.4948 9.8794 -34.6179 7.6973 -15.8920 -51.4649 0.0000 0.0000 0.0000 0.0000 0.0000 0.0000 0.0000 0.0000 0.0000 -0.0000 -0.0000 0.0000 -0.0000 -0.0000 0.0000 -0.6988 1.6151 -0.0285 -0.2097 2.1294 -5.4356 0.0696 1.0855 -5.6229 -1.7384 -2.1676 -10.2951 2.0505 -3.6685 39.5261 0.6093 -1.5450 15.7838 0.0000 0.0000 0.0000 -63.0150 13.8514 -18.3482 106.1869 -58.9864 -73.9705 -0.0000 0.0000 -40.4563 -13.1172 -9.1166 2.1145 -7.1250 0.0000 -0.0000 -27.6946 20.7773 18.2988 0.0000 0.0000 0.0000 60.9027 1.5940 77.0629 -148.7467 41.9437 -107.7612 0.0000 -0.0000 -44.0192 30.8313 -21.5593 -12.3705 7.1250 -0.0000 -0.0000 52.0249 -44.7670 0.4236
-0.5796 18.6187 6.5443 -2.7444 -3.3565 3.3459 0.0000 0.0000 0.0000 -13.2180 -9.1863 1.3140 1.3166 7.2677 20.5110 2.5215 9.8396 -34.7396 7.6189 -15.8316 -51.1779 0.0000 0.0000 0.0000 0.0000 0.0000 0.0000 0.0000 0.0000 0.0000 -0.0000 -0.0000 0.0000 -0.0000 -0.0000 0.0000 -0.4807 1.6679 -0.2344 -0.2936 2.2044 -5.1932 -0.1304 1.1103 -5.2382 -1.6755 -2.2395 -9.9826 2.2082 -3.8694 39.6418 0.6381 -1.6032 15.7777 -0.0000 0.0000 0.0000 -62.0630 14.2159 -16.7705 107.0001 -58.8793 -74.6671 -0.0000 0.0000 -40.7711 -12.5521 -9.4009 2.0828 -7.1250 0.0000 -0.0000 -27.2874 20.5462 18.1180 -0.0000 0.0000 0.0000 59.5664 2.1212 76.9545 -149.1307 41.6269 -108.0171 0.0000 -0.0000 -44.2865 30.7084 -21.6348 -12.3519 7.1250 -0.0000 -0.0000 52.0081 -44.8440 0.2831
-0.5979 18.6157 6.5452 -2.8445 -3.1427 2.9958 0.0000 0.0000 0.0000 -12.9298 -8.6545 1.4598 1.3181 7.2715 20.5223 2.4612 9.4893 -34.1917 7.6774 -15.8767 -51.3921 0.0000 0.0000 0.0000 0.0000 0.0000 0.0000 0.0000 0.0000 0.0000 -0.0000 -0.0000 0.0000 -0.0000 -0.0000 0.0000 -0.5536 1.5635 -0.2987 -0.2705 2.0653 -4.8624 -0.0512 1.0446 -4.8570 -1.6869 -2.2654 -9.7070 2.3106 -3.9572 39.8128 0.6747 -1.6312 15.8065 -0.0000 0.0000 0.0000 -60.6957 14.7110 -14.7594 107.5861 -58.7985 -75.1686 -0.0000 0.0000 -41.1061 -11.3161 -9.6303 1.9174 -7.1250 0.0000 -0.0000 -26.4717 20.3898 17.5378 -0.0000 0.0000 0.0000 58.3319 2.4107 76.5140 -149.5012 41.3171 -108.2624 0.0000 -0.0000 -44.6288 29.9444 -21.8368 -12.0940 7.1250 -0.0000 -0.0000 51.6915 -45.1200 -0.2144
